name processed_emg_signals
nRows=67
nColumns=7
 
endheader
time	LGLTMED	LRF	LADDLONG	LST	LTA	LGM
0.485	0.1279951546840972	0.0176608831223937	0.016663829869056	0.0318237648431032	0.0535352712753219	0.1776678509498999
0.486	0.1280076259901177	0.0174648173322144	0.0165232711977984	0.0314399881566814	0.0531136115578517	0.1758524583925376
0.487	0.1280887197051019	0.0172931469782047	0.0163927702691096	0.0310577608271031	0.0527328982073176	0.1740416981735766
0.488	0.1282372869884088	0.0171456190629935	0.0162722071506511	0.0306775087113892	0.0523935960887759	0.1722373010266078
0.489	0.128452125930289	0.0170219639045163	0.0161614542680576	0.0302996451456	0.0520961691351497	0.1704409738696349
0.49	0.1287319838477957	0.0169218956006329	0.0160603766588541	0.0299245708164792	0.0518410792005592	0.168654397844403
0.491	0.129075559601994	0.0168451125005219	0.0159688322285979	0.0295526736516157	0.051628784885823	0.1668792264235377
0.492	0.1294815059335404	0.0167912976820422	0.0158866720091087	0.0291843287275606	0.0514597403387626	0.1651170835884943
0.493	0.1299484318135707	0.0167601194342176	0.0158137404185855	0.028819898195285	0.0513343940320078	0.1633695620808709
0.494	0.1304749048066032	0.0167512317439772	0.0157498755234572	0.0284597312223278	0.0512531875209927	0.161638221729264
0.495	0.131059453441991	0.0167642747863243	0.0156949093017268	0.0281041639509372	0.0512165541848081	0.159924587853475
0.496	0.1317005695903089	0.0167988754171069	0.0156486679075854	0.0277535194714636	0.051224917952521	0.1582301497475371
0.497	0.1323967108409462	0.0168546476677184	0.0156109719370654	0.027408107810326	0.051278692017501	0.1565563592428337
0.498	0.1331463028771905	0.0169311932411288	0.0155816366945302	0.0270682259318332	0.0513782775423685	0.1549046293523136
0.499	0.1339477418450456	0.0170281020087488	0.015560472459839	0.0267341577532367	0.0515240623572043	0.1532763329965774
0.5	0.1347993967120455	0.0171449525077053	0.0155472847560492	0.0264061741724185	0.0517164196538156	0.1516728018124042
0.501	0.135699611612382	0.0172813124381417	0.0155418746175661	0.0260845331076824	0.0519557066789787	0.1500953250441029
0.502	0.1366467081747107	0.0174367391601997	0.015544038858633	0.025769479549175	0.0522422634296539	0.1485451485179386
0.503	0.1376389878293219	0.017610780190354	0.0155535703421319	0.0254612456214309	0.0525764113532265	0.1470234736997764
0.504	0.1386747340916173	0.0178029736967966	0.0155702582485981	0.0251600506566218	0.0529584520558337	0.1455314568358875
0.505	0.1397522148191571	0.0180128489935807	0.0155938883454429	0.0248661012780487	0.0533886660217695	0.1440702081767101
0.506	0.1408696844397698	0.0182399270332151	0.0156242432562594	0.0245795914934764	0.0538673113468788	0.1426407912830974
0.507	0.142025386148114	0.0184837208974072	0.0156611027301611	0.0243007027979481	0.0543946224887798	0.1412442224142326
0.508	0.1432175540679408	0.0187437362855817	0.0157042439110264	0.0240296042857696	0.0549708090366288	0.1398814699960524
0.509	0.1444444153769566	0.0190194720008647	0.0157534416065613	0.0237664527714377	0.0555960545030658	0.1385534541686806
0.51	0.1457041923910787	0.0193104204332215	0.0158084685570655	0.0235113929193462	0.0562705151408266	0.137261046411187
0.511	0.1469951046048996	0.0196160680394674	0.0158690957037993	0.0232645573821888	0.0569943187864811	0.1360050692419219
0.512	0.1483153706852997	0.019935895819924	0.015935092456823	0.0230260669479851	0.0577675637337222	0.1347862959925464
0.513	0.149663210415421	0.0202693797914786	0.0160062269621863	0.022796030695696	0.0585903176385852	0.1336054506537313
0.514	0.1510368465863706	0.0206159914568166	0.0160822663682898	0.0225745461593372	0.0594626164589853	0.1324632077901912
0.515	0.1524345068340377	0.0209751982696325	0.0161629770912385	0.0223616995005012	0.0603844634309194	0.1313601925224742
0.516	0.153854425418387	0.0213464640956285	0.0162481250789321	0.0221575656891144	0.061355828083686	0.1302969805726548
0.517	0.1552948449426077	0.0217292496690847	0.0163374760736164	0.0219622086922501	0.0623766452964568	0.1292740983710415
0.518	0.1567540180096343	0.0221230130448228	0.0164307958725825	0.0217756816706728	0.0634468143985155	0.1282920232210253
0.519	0.1582302088139446	0.0225272100453536	0.0165278505866612	0.0215980271828092	0.0645661983154215	0.1273511835193529
0.52	0.1597216946668679	0.0229412947029665	0.0166284068961993	0.0214292773957104	0.0657346227632348	0.1264519590294498
0.521	0.161226767453944	0.0233647196965108	0.0167322323041401	0.0212694543026041	0.066951875492955	0.125594681205853
0.522	0.162743735023114	0.0237969367825324	0.0168390953858749	0.0211185699465897	0.0682177055873151	0.1247796335683491
0.523	0.1642709225028096	0.024237397220441	0.0169487660354734	0.0209766266500981	0.069531822812156	0.1240070521249028
0.524	0.1658066735493653	0.0246855521913353	0.0170610157079534	0.0208436172496955	0.0708938970246116	0.1232771258427754
0.525	0.1673493515234481	0.0251408532100766	0.017175617657197	0.0207195253358464	0.0723035576403581	0.1225899971674828
0.526	0.1688973405953669	0.0256027525302158	0.0172923471691848	0.0206043254972106	0.0737603931620692	0.1219457625892149
0.527	0.1704490467795108	0.0260707035413188	0.0174109817902671	0.0204979835690794	0.0752639507711314	0.1213444732563494
0.528	0.1720028988987615	0.0265441611583147	0.0175313015501939	0.0204004568855758	0.0768137359845397	0.1207861356354483
0.529	0.1735573494805543	0.0270225822025112	0.0176530891797079	0.0203116945352317	0.0784092123786763	0.1202707122170226
0.53	0.175110875587041	0.0275054257739408	0.0177761303224895	0.020231637619584	0.080049801381505	0.1197981222661612
0.531	0.1766619795824829	0.0279921536147975	0.0179002137412296	0.0201602195144169	0.0817348821345536	0.1193682426169586
0.532	0.1782091898413741	0.0284822304637283	0.0180251315176584	0.0200973661332708	0.0834637914257782	0.1189809085095888
0.533	0.1797510614010578	0.0289751244008254	0.0181506792463532	0.0200429961928245	0.085235823694325	0.1186359144687843
0.534	0.1812861765626783	0.0294703071832808	0.0182766562221769	0.0199970214797263	0.0870502311079953	0.1183330152226696
0.535	0.1828131454441258	0.0299672545717398	0.0184028656212829	0.0199593471184552	0.088906223714267	0.1180719266612403
0.536	0.1843306064883106	0.0304654466475776	0.0185291146755819	0.0199298718397732	0.0908029696656971	0.1178523268341722
0.537	0.1858372269294933	0.0309643681214369	0.0186552148406387	0.0199084882493558	0.0927395955205969	0.1176738569879743
0.538	0.1873317032199478	0.0314635086335588	0.0187809819569155	0.0198950830962092	0.0947151866198725	0.1175361226427328
0.539	0.1888127614188312	0.0319623630464713	0.0189062364043164	0.0198895375405149	0.0967287875408553	0.1174386947088967
0.54	0.1902791575449692	0.0324604317307264	0.0190308032499208	0.0198917274205293	0.0987794026289092	0.1173811106447712
0.541	0.1917296778951407	0.0329572208443363	0.0191545123888	0.0199015235181891	0.1008659966075034	0.1173628756556129
0.542	0.1931631393294305	0.0334522426065969	0.0192771986777122	0.0199187918230002	0.1029874952674927	0.1173834639354351
0.543	0.1945783895252578	0.0339450155669303	0.0193987020615081	0.0199433937938461	0.1051427862364155	0.1174423199526645
0.544	0.1959743072018704	0.0344350648693734	0.0195188676919739	0.019975186618303	0.1073307198286466	0.1175388597808096
0.545	0.1973498023172607	0.0349219225132763	0.0196375460388991	0.0200140234690793	0.1095501099773658	0.117672472475093
0.546	0.1987038162394583	0.0354051276107587	0.0197545929930917	0.020059753757171	0.1117997352492327	0.1178425214957714
0.547	0.2000353218941475	0.0358842266413789	0.019869869961122	0.0201122233813656	0.1140783399426308	0.1180483461785986
0.548	0.2013433238904573	0.0363587737044362	0.0199832439515146	0.0201712749736853	0.1163846352701788	0.1182892632525884
0.549	0.2026268586267863	0.0368283307692255	0.0200945876521739	0.0202367481404244	0.1187173006260254	0.1185645684049486
0.55	0.2038849943785673	0.0372924679234986	0.020203779498795	0.0203084796984111	0.121074984938246	0.1188735378926824
0.551	0.2051168313699393	0.0377507636203353	0.0203107037339446	0.0203863039061418	0.123456308106445	0.1192154302000869
